<?xml version="1.0" standalone="no"?>
<!DOCTYPE svg PUBLIC "-//W3C//DTD SVG 20010904//EN"
 "http://www.w3.org/TR/2001/REC-SVG-20010904/DTD/svg10.dtd">
<svg version="1.0" xmlns="http://www.w3.org/2000/svg"
 width="16.000000pt" height="16.000000pt" viewBox="0 0 16.000000 16.000000"
 preserveAspectRatio="xMidYMid meet">
<metadata>
Created by potrace 1.11, written by Peter Selinger 2001-2013
</metadata>
<g transform="translate(0.000000,16.000000) scale(0.002512,-0.002512)"
fill="#000000" stroke="none">
<path d="M1813 5582 l-1362 -787 -1 -492 0 -491 -33 -21 c-38 -23 -138 -123
-168 -166 -141 -208 -158 -486 -44 -703 45 -86 115 -171 185 -223 l55 -41 5
-511 5 -511 1363 -787 1364 -787 263 152 c144 83 758 437 1363 786 l1101 635
1 490 0 490 62 45 c112 82 207 225 245 370 20 79 23 242 4 320 -34 144 -142
308 -261 395 l-50 37 0 507 0 507 -1364 787 c-749 433 -1365 787 -1367 786 -2
0 -617 -355 -1366 -787z m1405 335 c-5 -37 -67 -33 -68 5 0 4 7 14 16 22 21
22 56 3 52 -27z m1057 -893 l1085 -626 0 -362 -1 -361 -60 -35 c-124 -71 -226
-219 -249 -360 -14 -94 -12 -217 5 -284 35 -136 122 -252 239 -320 l66 -39 0
-341 -1 -341 -242 -139 c-133 -76 -623 -358 -1088 -627 l-847 -489 -453 261
c-584 337 -1472 847 -1617 930 l-112 64 0 360 0 360 55 29 c114 59 206 169
246 295 17 52 22 90 21 176 0 138 -22 233 -70 315 -44 74 -141 168 -206 199
l-46 23 0 342 0 341 1083 627 c595 344 1088 626 1095 627 7 1 501 -281 1097
-625z m1467 -837 l-2 -512 58 -27 c79 -37 173 -133 216 -219 116 -231 35 -515
-188 -661 -33 -21 -63 -38 -67 -38 -5 0 -10 102 -11 227 l-3 227 -87 50 -88
51 0 557 0 557 35 17 c48 22 65 59 65 140 0 62 -2 68 -34 100 -19 19 -41 34
-50 34 -13 0 -16 11 -16 54 l0 55 88 -50 87 -50 -3 -512z m-4897 378 c0 -35
-31 -47 -51 -20 -18 25 0 57 29 53 17 -2 22 -10 22 -33z m4739 13 c8 -14 7
-21 -6 -34 -30 -30 -75 9 -48 42 16 18 39 15 54 -8z m-4879 -1380 l95 -53 0
-561 0 -562 -23 -6 c-12 -3 -36 -19 -52 -36 -28 -29 -30 -37 -30 -105 0 -68 2
-76 30 -105 16 -17 40 -33 52 -36 20 -5 23 -13 23 -50 0 -51 9 -53 -112 18
l-68 39 0 508 0 508 -66 39 c-342 200 -341 687 1 885 l50 29 3 -229 2 -229 95
-54z m133 -1277 c21 -13 11 -55 -15 -59 -30 -4 -49 31 -27 52 18 18 24 19 42
7z m4750 -34 c-2 -17 -10 -22 -33 -22 -35 0 -47 31 -20 51 25 18 57 0 53 -29z
m-2375 -1369 c15 -23 1 -48 -27 -48 -33 0 -46 38 -20 57 21 15 34 13 47 -9z"/>
<path d="M2564 4792 c-340 -197 -717 -414 -836 -482 l-218 -125 0 -627 0 -628
1465 0 1465 0 0 -223 0 -223 -442 -256 c-244 -141 -527 -304 -629 -363 l-187
-107 -178 103 c-99 56 -391 225 -651 375 l-472 274 -206 -116 -205 -116 0 -42
0 -42 268 -154 c147 -85 523 -302 835 -483 313 -180 579 -333 591 -339 20 -9
79 22 462 244 241 140 618 357 837 483 l397 230 0 622 0 623 -350 0 -351 0 8
-52 c10 -66 10 -284 0 -320 l-7 -28 -974 0 -975 0 -8 58 c-10 74 -7 245 5 300
l10 42 -149 0 -149 0 0 223 0 223 31 18 c402 238 1228 706 1239 703 8 -2 300
-169 649 -371 348 -201 639 -366 645 -366 6 0 100 51 208 113 205 116 218 127
204 180 -4 17 -98 75 -388 241 -332 190 -1184 683 -1289 745 l-35 21 -620
-358z"/>
</g>
</svg>
